<svg xmlns="http://www.w3.org/2000/svg" viewBox="0 0 200 200" width="200" height="200">
  <!-- Background Circle with Gradient -->
  <circle cx="100" cy="100" r="90" fill="url(#grad1)" />
  
  <!-- Car Silhouette -->
  <path d="M50,120 C50,110 60,105 70,105 L130,105 C140,105 150,110 150,120 L150,130 C150,135 145,140 140,140 L60,140 C55,140 50,135 50,130 Z" fill="#ffffff" />
  <circle cx="70" cy="140" r="10" fill="#333333" />
  <circle cx="130" cy="140" r="10" fill="#333333" />
  <path d="M60,105 L70,85 L130,85 L140,105" fill="#ffffff" />
  <rect x="80" y="90" width="40" height="15" fill="#333333" opacity="0.7" />
  
  <!-- Text -->
  <text x="100" y="70" font-family="Arial, sans-serif" font-size="24" font-weight="bold" text-anchor="middle" fill="#ffffff">MIR BABA</text>
  <text x="100" y="170" font-family="Arial, sans-serif" font-size="14" text-anchor="middle" fill="#ffffff">CAB SERVICE</text>
  
  <!-- Decorative Elements -->
  <path d="M30,100 L45,100 M155,100 L170,100" stroke="#ffffff" stroke-width="3" />
  
  <!-- Gradient Definition -->
  <defs>
    <linearGradient id="grad1" x1="0%" y1="0%" x2="100%" y2="100%">
      <stop offset="0%" style="stop-color:#4361ee;stop-opacity:1" />
      <stop offset="100%" style="stop-color:#7209b7;stop-opacity:1" />
    </linearGradient>
  </defs>
</svg>